<svg width="117" height="93" viewBox="0 0 117 93" fill="none" xmlns="http://www.w3.org/2000/svg">
<path fill-rule="evenodd" clip-rule="evenodd" d="M110.094 37.2516C103.275 23.3055 90.3049 13.0331 74.8938 9.76886C75.7854 7.10213 77.1406 4.63888 78.8683 2.48039C94.9061 6.5637 108.437 17.258 116.2 31.6325C114.516 33.8402 112.45 35.7474 110.094 37.2516Z" fill="black"/>
<path d="M48.5031 47.5827V2.5827H61.6031V25.5827C65.1031 23.0827 69.1031 21.7827 74.2031 21.7827C88.4031 21.7827 100.003 33.2827 100.003 47.5827C100.003 61.8827 88.4031 73.3827 74.2031 73.3827C60.0031 73.3827 48.5031 61.8827 48.5031 47.5827ZM74.3031 34.4827C66.9031 34.4827 61.4031 40.1827 61.4031 47.5827C61.4031 54.9827 66.9031 60.6827 74.3031 60.6827C81.7031 60.6827 87.0031 54.9827 87.0031 47.5827C87.0031 40.1827 81.7031 34.4827 74.3031 34.4827Z" fill="black"/>
<path d="M0.518677 47.3827C0.518677 33.0827 12.0187 21.5827 26.2187 21.5827C40.4187 21.5827 52.0187 33.0827 52.0187 47.3827C52.0187 61.6827 40.4187 73.1827 26.2187 73.1827C21.1187 73.1827 17.1187 71.8827 13.6187 69.3827V92.3827H0.518677V47.3827ZM26.3187 60.4827C33.7187 60.4827 39.0187 54.7827 39.0187 47.3827C39.0187 39.9827 33.7187 34.2827 26.3187 34.2827C18.9187 34.2827 13.4187 39.9827 13.4187 47.3827C13.4187 54.7827 18.9187 60.4827 26.3187 60.4827Z" fill="black"/>
</svg>
