<svg width="193" height="219" viewBox="0 0 193 219" fill="none" xmlns="http://www.w3.org/2000/svg">
<line x1="30.1837" y1="89.9139" x2="31.9298" y2="218.099" stroke="black" stroke-width="8"/>
<line x1="75.9152" y1="99.6404" x2="77.2827" y2="183.201" stroke="black" stroke-width="8"/>
<line x1="150.037" y1="63.6446" x2="188.413" y2="157.84" stroke="black" stroke-width="8"/>
<line x1="130.983" y1="157.154" x2="143.193" y2="183.32" stroke="black" stroke-width="8"/>
<path fill-rule="evenodd" clip-rule="evenodd" d="M62.333 143.524C62.3258 143.52 62.3186 143.515 62.3113 143.511C34.3932 126.286 25.7247 89.69 42.9498 61.7719C60.1748 33.8538 96.7706 25.1853 124.689 42.4103C152.607 59.6354 161.275 96.2312 144.05 124.149C134.091 140.291 117.657 149.998 100.168 151.985C100.603 154.637 100.531 157.38 99.9142 160.056C120.187 158.103 139.34 147.02 150.859 128.35C170.404 96.6717 160.568 55.147 128.889 35.6019C97.2111 16.0569 55.6864 25.8929 36.1414 57.5712C16.5964 89.2495 26.4323 130.774 58.1107 150.319C58.4477 150.527 58.7858 150.732 59.125 150.933C59.614 148.679 60.4876 146.467 61.7679 144.392C61.9502 144.097 62.1386 143.807 62.333 143.524Z" fill="black"/>
<path fill-rule="evenodd" clip-rule="evenodd" d="M105.746 56.7727C93.35 52.975 79.6828 55.0566 68.9344 62.6445C67.4502 60.2614 66.5003 57.6212 66.1008 54.9061C77.9819 47.2609 92.5352 45.028 106.033 48.5393C106.498 51.2591 106.407 54.0652 105.746 56.7727Z" fill="black"/>
</svg>
