<svg width="264" height="266" viewBox="0 0 264 266" fill="none" xmlns="http://www.w3.org/2000/svg">
<line x1="13.8554" y1="115.191" x2="110.171" y2="263.612" stroke="black" stroke-width="8"/>
<line x1="65.4344" y1="96.7699" x2="161.75" y2="245.191" stroke="black" stroke-width="8"/>
<line x1="128.734" y1="22.3872" x2="260.84" y2="117.65" stroke="black" stroke-width="8"/>
<line x1="164.945" y1="122.545" x2="203.366" y2="150.251" stroke="black" stroke-width="8"/>
<path fill-rule="evenodd" clip-rule="evenodd" d="M79.4474 149.895C118.631 149.895 150.395 118.131 150.395 78.9474C150.395 39.7642 118.631 8 79.4474 8C40.2642 8 8.5 39.7642 8.5 78.9474C8.5 118.131 40.2642 149.895 79.4474 149.895ZM79.4474 157.895C123.049 157.895 158.395 122.549 158.395 78.9474C158.395 35.3459 123.049 0 79.4474 0C35.8459 0 0.5 35.3459 0.5 78.9474C0.5 122.549 35.8459 157.895 79.4474 157.895Z" fill="black"/>
<path fill-rule="evenodd" clip-rule="evenodd" d="M66.3568 27.0879C51.3462 31.047 38.735 41.7565 32.5189 56.2312C30.0782 54.8352 27.9276 53.0243 26.1488 50.9077C33.2907 35.9786 46.4254 24.8014 62.0409 20C63.8764 22.0839 65.3426 24.4833 66.3568 27.0879Z" fill="black"/>
</svg>
