<svg width="236" height="90" viewBox="0 0 236 90" fill="none" xmlns="http://www.w3.org/2000/svg">
<path d="M184.376 45.1C184.376 31.2 195.376 19.2 209.776 19.2C222.176 19.2 235.376 28 235.876 43.9C235.976 46.2 235.776 48.4 235.476 50.1H198.376C199.576 55.1 203.976 58.1 209.776 58.1C214.476 58.1 216.776 56.5 218.376 55.2L233.876 55.3C229.876 64.4 220.776 70.8 210.176 70.8C195.776 70.8 184.376 59.3 184.376 45.1ZM198.376 39.7H221.976C219.976 35 215.176 31.9 210.176 31.9C204.376 31.9 200.376 35 198.376 39.7Z" fill="black"/>
<path d="M130.844 45V0H143.944V23C147.444 20.5 151.444 19.2 156.544 19.2C170.744 19.2 182.344 30.7 182.344 45C182.344 59.3 170.744 70.8 156.544 70.8C142.344 70.8 130.844 59.3 130.844 45ZM156.644 31.9C149.244 31.9 143.744 37.6 143.744 45C143.744 52.4 149.244 58.1 156.644 58.1C164.044 58.1 169.344 52.4 169.344 45C169.344 37.6 164.044 31.9 156.644 31.9Z" fill="black"/>
<path d="M102.504 19.2C116.804 19.2 128.304 30.7 128.304 45C128.304 59.3 116.804 70.8 102.504 70.8C88.2038 70.8 76.7038 59.3 76.7038 45C76.7038 30.7 88.2038 19.2 102.504 19.2ZM102.604 31.9C95.2038 31.9 89.7038 37.6 89.7038 45C89.7038 52.4 95.2038 58.1 102.604 58.1C110.004 58.1 115.304 52.4 115.304 45C115.304 37.6 110.004 31.9 102.604 31.9Z" fill="black"/>
<path d="M54.1296 70V43.7C54.1296 27.2 63.3296 19.8 75.5296 19.8H76.1296V32.5H75.6296C69.9296 32.5 67.1296 35.9 67.1296 43.7V70H54.1296Z" fill="black"/>
<path d="M0.0983276 45C0.0983276 30.7 11.5983 19.2 25.7983 19.2C39.9983 19.2 51.5983 30.7 51.5983 45C51.5983 59.3 39.9983 70.8 25.7983 70.8C20.6983 70.8 16.6983 69.5 13.1983 67V90H0.0983276V45ZM25.8983 58.1C33.2983 58.1 38.5983 52.4 38.5983 45C38.5983 37.6 33.2983 31.9 25.8983 31.9C18.4983 31.9 12.9983 37.6 12.9983 45C12.9983 52.4 18.4983 58.1 25.8983 58.1Z" fill="black"/>
</svg>
